<svg width="63" height="18" viewBox="0 0 63 18" fill="none" xmlns="http://www.w3.org/2000/svg">
<path d="M13.582 17H11.88L2.864 8.467L1.323 9.778V17H0.15V0.876999H1.323V9.479L11.397 0.899999H11.742L3.784 7.662L13.582 17ZM15.2553 9.111H25.5593C25.5439 7.869 25.0993 6.84933 24.2253 6.052C23.3666 5.25467 22.2473 4.856 20.8673 4.856C19.4873 4.856 18.2836 5.25467 17.2563 6.052C16.2443 6.834 15.5773 7.85367 15.2553 9.111ZM13.8063 10.79C13.8063 8.98067 14.4579 7.50867 15.7613 6.374C17.0646 5.23933 18.7666 4.672 20.8673 4.672C22.6459 4.672 24.0949 5.07833 25.2143 5.891C26.3336 6.70367 26.8933 7.754 26.8933 9.042V9.318H15.2093C15.1173 9.74733 15.0713 10.192 15.0713 10.652C15.0713 12.3693 15.6846 13.7723 16.9113 14.861C18.1533 15.9497 19.6636 16.494 21.4423 16.494C22.6536 16.494 23.7959 16.241 24.8693 15.735C25.9426 15.229 26.7476 14.5927 27.2843 13.826L27.4223 13.895C26.9623 14.769 26.1343 15.5203 24.9383 16.149C23.7576 16.7623 22.4159 17.069 20.9133 17.069C18.8586 17.069 17.1566 16.4863 15.8073 15.321C14.4733 14.1557 13.8063 12.6453 13.8063 10.79ZM30.4838 9.111H40.7878C40.7724 7.869 40.3278 6.84933 39.4538 6.052C38.5951 5.25467 37.4758 4.856 36.0958 4.856C34.7158 4.856 33.5121 5.25467 32.4848 6.052C31.4728 6.834 30.8058 7.85367 30.4838 9.111ZM29.0348 10.79C29.0348 8.98067 29.6864 7.50867 30.9898 6.374C32.2931 5.23933 33.9951 4.672 36.0958 4.672C37.8744 4.672 39.3234 5.07833 40.4428 5.891C41.5621 6.70367 42.1218 7.754 42.1218 9.042V9.318H30.4378C30.3458 9.74733 30.2998 10.192 30.2998 10.652C30.2998 12.3693 30.9131 13.7723 32.1398 14.861C33.3818 15.9497 34.8921 16.494 36.6708 16.494C37.8821 16.494 39.0244 16.241 40.0978 15.735C41.1711 15.229 41.9761 14.5927 42.5128 13.826L42.6508 13.895C42.1908 14.769 41.3628 15.5203 40.1668 16.149C38.9861 16.7623 37.6444 17.069 36.1418 17.069C34.0871 17.069 32.3851 16.4863 31.0358 15.321C29.7018 14.1557 29.0348 12.6453 29.0348 10.79ZM46.0803 4.856H44.2633V4.672H46.0803V2.027H47.2763V4.672H49.1853V4.856H47.2763V17H46.0803V4.856ZM57.7287 5.247C56.3487 5.247 55.2064 5.69167 54.3017 6.581C53.397 7.455 52.845 8.48233 52.6457 9.663V17H51.4957V0.899999H52.6457V8.927C53.0137 7.74633 53.65 6.742 54.5547 5.914C55.4594 5.086 56.6247 4.672 58.0507 4.672C59.538 4.672 60.7187 5.14733 61.5927 6.098C62.4667 7.03333 62.9037 8.22167 62.9037 9.663V17H61.7537V9.847C61.7537 8.40567 61.401 7.27867 60.6957 6.466C59.9904 5.65333 59.0014 5.247 57.7287 5.247Z" fill="url(#paint0_linear_292_69)"/>
<path d="M13.582 17V17.5H14.8314L13.927 16.6381L13.582 17ZM11.88 17L11.5363 17.3631L11.6809 17.5H11.88V17ZM2.864 8.467L3.20769 8.10385L2.88179 7.79541L2.54001 8.08617L2.864 8.467ZM1.323 9.778L0.999011 9.39717L0.823 9.54691V9.778H1.323ZM1.323 17V17.5H1.823V17H1.323ZM0.15 17H-0.35V17.5H0.15V17ZM0.15 0.876999V0.376999H-0.35V0.876999H0.15ZM1.323 0.876999H1.823V0.376999H1.323V0.876999ZM1.323 9.479H0.823V10.5615L1.64718 9.85967L1.323 9.479ZM11.397 0.899999V0.399999H11.2129L11.0728 0.51933L11.397 0.899999ZM11.742 0.899999L12.0658 1.28102L13.1026 0.399999H11.742V0.899999ZM3.784 7.662L3.46024 7.28098L3.03691 7.64069L3.43905 8.02395L3.784 7.662ZM13.582 16.5H11.88V17.5H13.582V16.5ZM12.2237 16.6369L3.20769 8.10385L2.52031 8.83015L11.5363 17.3631L12.2237 16.6369ZM2.54001 8.08617L0.999011 9.39717L1.64699 10.1588L3.18799 8.84783L2.54001 8.08617ZM0.823 9.778V17H1.823V9.778H0.823ZM1.323 16.5H0.15V17.5H1.323V16.5ZM0.65 17V0.876999H-0.35V17H0.65ZM0.15 1.377H1.323V0.376999H0.15V1.377ZM0.823 0.876999V9.479H1.823V0.876999H0.823ZM1.64718 9.85967L11.7212 1.28067L11.0728 0.51933L0.998823 9.09833L1.64718 9.85967ZM11.397 1.4H11.742V0.399999H11.397V1.4ZM11.4182 0.518975L3.46024 7.28098L4.10776 8.04302L12.0658 1.28102L11.4182 0.518975ZM3.43905 8.02395L13.237 17.3619L13.927 16.6381L4.12895 7.30005L3.43905 8.02395ZM15.2553 9.111L14.7709 8.98695L14.6111 9.611H15.2553V9.111ZM25.5593 9.111V9.611H26.0655L26.0592 9.10483L25.5593 9.111ZM24.2253 6.052L23.885 6.41841L23.8883 6.42138L24.2253 6.052ZM17.2563 6.052L17.562 6.44764L17.5628 6.44699L17.2563 6.052ZM15.7612 6.374L15.4329 5.99689L15.7612 6.374ZM25.2143 5.891L24.9205 6.29561L25.2143 5.891ZM26.8932 9.318V9.818H27.3932V9.318H26.8932ZM15.2092 9.318V8.818H14.805L14.7203 9.21323L15.2092 9.318ZM16.9112 14.861L16.5794 15.235L16.5817 15.237L16.9112 14.861ZM24.8693 15.735L25.0825 16.1873L24.8693 15.735ZM27.2843 13.826L27.5079 13.3788L27.122 13.1859L26.8746 13.5393L27.2843 13.826ZM27.4223 13.895L27.8647 14.1279L28.1025 13.6761L27.6459 13.4478L27.4223 13.895ZM24.9383 16.149L25.1687 16.5927L25.1709 16.5916L24.9383 16.149ZM15.8073 15.321L15.4783 15.6976L15.4804 15.6994L15.8073 15.321ZM15.2553 9.611H25.5593V8.611H15.2553V9.611ZM26.0592 9.10483C26.0423 7.73219 25.5441 6.57835 24.5622 5.68262L23.8883 6.42138C24.6544 7.12031 25.0456 8.00581 25.0593 9.11717L26.0592 9.10483ZM24.5655 5.6856C23.5982 4.78742 22.3496 4.356 20.8673 4.356V5.356C22.1449 5.356 23.135 5.72191 23.885 6.4184L24.5655 5.6856ZM20.8673 4.356C19.3835 4.356 18.0703 4.78728 16.9497 5.65701L17.5628 6.44699C18.4969 5.72205 19.591 5.356 20.8673 5.356V4.356ZM16.9505 5.65636C15.849 6.50755 15.1201 7.62345 14.7709 8.98695L15.7396 9.23505C16.0344 8.08388 16.6395 7.16045 17.562 6.44764L16.9505 5.65636ZM14.3062 10.79C14.3062 9.11753 14.901 7.78584 16.0896 6.75111L15.4329 5.99689C14.0148 7.23149 13.3062 8.8438 13.3062 10.79H14.3062ZM16.0896 6.75111C17.2833 5.71187 18.8601 5.172 20.8673 5.172V4.172C18.6731 4.172 16.8459 4.76679 15.4329 5.99689L16.0896 6.75111ZM20.8673 5.172C22.5706 5.172 23.9081 5.56061 24.9205 6.29561L25.508 5.48639C24.2817 4.59606 22.7212 4.172 20.8673 4.172V5.172ZM24.9205 6.29561C25.9215 7.02234 26.3932 7.92747 26.3932 9.042H27.3932C27.3932 7.58053 26.7457 6.385 25.508 5.48639L24.9205 6.29561ZM26.3932 9.042V9.318H27.3932V9.042H26.3932ZM26.8932 8.818H15.2092V9.818H26.8932V8.818ZM14.7203 9.21323C14.6206 9.6786 14.5712 10.1585 14.5712 10.652H15.5713C15.5713 10.2255 15.6139 9.81607 15.6982 9.42276L14.7203 9.21323ZM14.5712 10.652C14.5712 12.5046 15.2402 14.0464 16.5794 15.235L17.2431 14.487C16.129 13.4982 15.5713 12.234 15.5713 10.652H14.5712ZM16.5817 15.237C17.9222 16.412 19.5524 16.994 21.4423 16.994V15.994C19.7747 15.994 18.3843 15.4873 17.2408 14.485L16.5817 15.237ZM21.4423 16.994C22.7257 16.994 23.941 16.7254 25.0825 16.1873L24.656 15.2827C23.6508 15.7566 22.5814 15.994 21.4423 15.994V16.994ZM25.0825 16.1873C26.2138 15.6539 27.0956 14.9674 27.6939 14.1127L26.8746 13.5393C26.3996 14.2179 25.6713 14.8041 24.656 15.2827L25.0825 16.1873ZM27.0606 14.2732L27.1986 14.3422L27.6459 13.4478L27.5079 13.3788L27.0606 14.2732ZM26.9798 13.6621C26.5814 14.4191 25.8442 15.1079 24.7056 15.7064L25.1709 16.5916C26.4243 15.9327 27.3431 15.1189 27.8647 14.1279L26.9798 13.6621ZM24.7078 15.7053C23.6071 16.2771 22.3462 16.569 20.9132 16.569V17.569C22.4857 17.569 23.9081 17.2476 25.1687 16.5927L24.7078 15.7053ZM20.9132 16.569C18.9592 16.569 17.3789 16.0177 16.1341 14.9426L15.4804 15.6994C16.9343 16.955 18.758 17.569 20.9132 17.569V16.569ZM16.1362 14.9444C14.9166 13.8791 14.3062 12.5088 14.3062 10.79H13.3062C13.3062 12.7819 14.0299 14.4323 15.4783 15.6976L16.1362 14.9444ZM30.4838 9.111L29.9994 8.98695L29.8396 9.611H30.4838V9.111ZM40.7878 9.111V9.611H41.294L41.2877 9.10483L40.7878 9.111ZM39.4538 6.052L39.1135 6.41841L39.1168 6.42138L39.4538 6.052ZM32.4848 6.052L32.7905 6.44764L32.7913 6.44699L32.4848 6.052ZM30.9898 6.374L30.6615 5.99689L30.9898 6.374ZM40.4428 5.891L40.149 6.29561L40.4428 5.891ZM42.1218 9.318V9.818H42.6218V9.318H42.1218ZM30.4378 9.318V8.818H30.0336L29.9489 9.21323L30.4378 9.318ZM32.1398 14.861L31.8079 15.235L31.8102 15.237L32.1398 14.861ZM40.0978 15.735L40.311 16.1873L40.0978 15.735ZM42.5128 13.826L42.7364 13.3788L42.3505 13.1859L42.1031 13.5393L42.5128 13.826ZM42.6508 13.895L43.0932 14.1279L43.331 13.6761L42.8744 13.4478L42.6508 13.895ZM40.1668 16.149L40.3973 16.5927L40.3994 16.5916L40.1668 16.149ZM31.0358 15.321L30.7068 15.6976L30.709 15.6994L31.0358 15.321ZM30.4838 9.611H40.7878V8.611H30.4838V9.611ZM41.2877 9.10483C41.2708 7.73219 40.7726 6.57835 39.7907 5.68262L39.1168 6.42138C39.8829 7.12031 40.2741 8.00581 40.2878 9.11717L41.2877 9.10483ZM39.794 5.6856C38.8267 4.78742 37.5781 4.356 36.0958 4.356V5.356C37.3734 5.356 38.3635 5.72191 39.1135 6.4184L39.794 5.6856ZM36.0958 4.356C34.612 4.356 33.2988 4.78728 32.1782 5.65701L32.7913 6.44699C33.7254 5.72205 34.8195 5.356 36.0958 5.356V4.356ZM32.179 5.65636C31.0775 6.50755 30.3486 7.62345 29.9994 8.98695L30.9681 9.23505C31.2629 8.08388 31.868 7.16045 32.7905 6.44764L32.179 5.65636ZM29.5348 10.79C29.5348 9.11753 30.1295 7.78584 31.3181 6.75111L30.6615 5.99689C29.2433 7.23149 28.5348 8.8438 28.5348 10.79H29.5348ZM31.3181 6.75111C32.5118 5.71187 34.0886 5.172 36.0958 5.172V4.172C33.9016 4.172 32.0744 4.76679 30.6615 5.99689L31.3181 6.75111ZM36.0958 5.172C37.7991 5.172 39.1367 5.56061 40.149 6.29561L40.7365 5.48639C39.5102 4.59606 37.9497 4.172 36.0958 4.172V5.172ZM40.149 6.29561C41.15 7.02234 41.6218 7.92747 41.6218 9.042H42.6218C42.6218 7.58053 41.9742 6.385 40.7365 5.48639L40.149 6.29561ZM41.6218 9.042V9.318H42.6218V9.042H41.6218ZM42.1218 8.818H30.4378V9.818H42.1218V8.818ZM29.9489 9.21323C29.8491 9.6786 29.7998 10.1585 29.7998 10.652H30.7998C30.7998 10.2255 30.8424 9.81607 30.9267 9.42276L29.9489 9.21323ZM29.7998 10.652C29.7998 12.5046 30.4687 14.0464 31.8079 15.235L32.4717 14.487C31.3575 13.4982 30.7998 12.234 30.7998 10.652H29.7998ZM31.8102 15.237C33.1507 16.412 34.7809 16.994 36.6708 16.994V15.994C35.0033 15.994 33.6128 15.4873 32.4693 14.485L31.8102 15.237ZM36.6708 16.994C37.9542 16.994 39.1695 16.7254 40.311 16.1873L39.8846 15.2827C38.8793 15.7566 37.81 15.994 36.6708 15.994V16.994ZM40.311 16.1873C41.4423 15.6539 42.3241 14.9674 42.9224 14.1127L42.1031 13.5393C41.6281 14.2179 40.8999 14.8041 39.8846 15.2827L40.311 16.1873ZM42.2892 14.2732L42.4272 14.3422L42.8744 13.4478L42.7364 13.3788L42.2892 14.2732ZM42.2083 13.6621C41.8099 14.4191 41.0727 15.1079 39.9341 15.7064L40.3994 16.5916C41.6528 15.9327 42.5716 15.1189 43.0932 14.1279L42.2083 13.6621ZM39.9363 15.7053C38.8356 16.2771 37.5747 16.569 36.1418 16.569V17.569C37.7142 17.569 39.1366 17.2476 40.3973 16.5927L39.9363 15.7053ZM36.1418 16.569C34.1877 16.569 32.6074 16.0177 31.3626 14.9426L30.709 15.6994C32.1628 16.955 33.9865 17.569 36.1418 17.569V16.569ZM31.3647 14.9444C30.1451 13.8791 29.5348 12.5088 29.5348 10.79H28.5348C28.5348 12.7819 29.2584 14.4323 30.7068 15.6976L31.3647 14.9444ZM46.0803 4.856H46.5803V4.356H46.0803V4.856ZM44.2633 4.856H43.7633V5.356H44.2633V4.856ZM44.2633 4.672V4.172H43.7633V4.672H44.2633ZM46.0803 4.672V5.172H46.5803V4.672H46.0803ZM46.0803 2.027V1.527H45.5803V2.027H46.0803ZM47.2763 2.027H47.7763V1.527H47.2763V2.027ZM47.2763 4.672H46.7763V5.172H47.2763V4.672ZM49.1853 4.672H49.6853V4.172H49.1853V4.672ZM49.1853 4.856V5.356H49.6853V4.856H49.1853ZM47.2763 4.856V4.356H46.7763V4.856H47.2763ZM47.2763 17V17.5H47.7763V17H47.2763ZM46.0803 17H45.5803V17.5H46.0803V17ZM46.0803 4.356H44.2633V5.356H46.0803V4.356ZM44.7633 4.856V4.672H43.7633V4.856H44.7633ZM44.2633 5.172H46.0803V4.172H44.2633V5.172ZM46.5803 4.672V2.027H45.5803V4.672H46.5803ZM46.0803 2.527H47.2763V1.527H46.0803V2.527ZM46.7763 2.027V4.672H47.7763V2.027H46.7763ZM47.2763 5.172H49.1853V4.172H47.2763V5.172ZM48.6853 4.672V4.856H49.6853V4.672H48.6853ZM49.1853 4.356H47.2763V5.356H49.1853V4.356ZM46.7763 4.856V17H47.7763V4.856H46.7763ZM47.2763 16.5H46.0803V17.5H47.2763V16.5ZM46.5803 17V4.856H45.5803V17H46.5803ZM54.3017 6.581L54.6491 6.94061L54.6522 6.93756L54.3017 6.581ZM52.6457 9.663L52.1527 9.57976L52.1457 9.62109V9.663H52.6457ZM52.6457 17V17.5H53.1457V17H52.6457ZM51.4957 17H50.9957V17.5H51.4957V17ZM51.4957 0.899999V0.399999H50.9957V0.899999H51.4957ZM52.6457 0.899999H53.1457V0.399999H52.6457V0.899999ZM52.6457 8.927H52.1457L53.1231 9.07578L52.6457 8.927ZM54.5547 5.914L54.8923 6.28284L54.5547 5.914ZM61.5927 6.098L61.2246 6.43641L61.2274 6.43937L61.5927 6.098ZM62.9037 17V17.5H63.4037V17H62.9037ZM61.7537 17H61.2537V17.5H61.7537V17ZM57.7287 4.747C56.2302 4.747 54.958 5.23467 53.9512 6.22444L54.6522 6.93756C55.4547 6.14866 56.4672 5.747 57.7287 5.747V4.747ZM53.9543 6.2214C52.977 7.16561 52.3707 8.28825 52.1527 9.57976L53.1387 9.74624C53.3193 8.67642 53.8171 7.74439 54.6491 6.9406L53.9543 6.2214ZM52.1457 9.663V17H53.1457V9.663H52.1457ZM52.6457 16.5H51.4957V17.5H52.6457V16.5ZM51.9957 17V0.899999H50.9957V17H51.9957ZM51.4957 1.4H52.6457V0.399999H51.4957V1.4ZM52.1457 0.899999V8.927H53.1457V0.899999H52.1457ZM53.1231 9.07578C53.465 7.97879 54.0534 7.05061 54.8923 6.28284L54.2171 5.54516C53.2467 6.43339 52.5624 7.51388 52.1684 8.77822L53.1231 9.07578ZM54.8923 6.28284C55.6899 5.55279 56.728 5.172 58.0507 5.172V4.172C56.5214 4.172 55.2288 4.61921 54.2171 5.54516L54.8923 6.28284ZM58.0507 5.172C59.4215 5.172 60.46 5.60472 61.2246 6.4364L61.9608 5.7596C60.9774 4.68994 59.6546 4.172 58.0507 4.172V5.172ZM61.2274 6.43937C62.0037 7.27023 62.4037 8.33117 62.4037 9.663H63.4037C63.4037 8.11216 62.9297 6.79644 61.958 5.75663L61.2274 6.43937ZM62.4037 9.663V17H63.4037V9.663H62.4037ZM62.9037 16.5H61.7537V17.5H62.9037V16.5ZM62.2537 17V9.847H61.2537V17H62.2537ZM62.2537 9.847C62.2537 8.32654 61.881 7.06884 61.0733 6.13826L60.3181 6.79374C60.9211 7.48849 61.2537 8.48479 61.2537 9.847H62.2537ZM61.0733 6.13826C60.2555 5.19594 59.1171 4.747 57.7287 4.747V5.747C58.8856 5.747 59.7253 6.11072 60.3181 6.79374L61.0733 6.13826Z" fill="url(#paint1_linear_292_69)"/>
<defs>
<linearGradient id="paint0_linear_292_69" x1="-11.3923" y1="11" x2="65" y2="11" gradientUnits="userSpaceOnUse">
<stop stop-color="#D25D42"/>
<stop offset="1" stop-color="#C55943"/>
</linearGradient>
<linearGradient id="paint1_linear_292_69" x1="-1" y1="11" x2="71.0453" y2="10.209" gradientUnits="userSpaceOnUse">
<stop stop-color="#DB3E42"/>
<stop offset="1" stop-color="#D25D42"/>
</linearGradient>
</defs>
</svg>
