<svg width="214" height="186" viewBox="0 0 214 186" fill="none" xmlns="http://www.w3.org/2000/svg">
<path fill-rule="evenodd" clip-rule="evenodd" d="M15.3199 0.203483C5.48978 1.68503 -1.27806 10.8549 0.203483 20.685L22.5034 168.645C23.9849 178.476 33.1548 185.243 42.9849 183.762C47.7607 183.042 51.8137 180.508 54.5491 176.964L122.966 100.618L178.375 178.293C182.695 184.35 190.078 186.927 196.911 185.421C202.366 184.525 207.02 180.861 209.182 175.79C210.898 172.294 211.444 168.309 210.714 164.467L213.767 96.8443C213.96 92.5788 210.939 88.8402 206.728 88.1327C202.414 87.4079 198.261 90.0962 197.155 94.3286L187.921 129.684L139.917 62.3896C134.924 55.39 125.84 53.0375 118.241 56.2647C115.005 57.144 111.978 58.9366 109.573 61.6197L52.3958 125.424L35.8014 15.3199C34.3199 5.48978 25.15 -1.27806 15.3199 0.203483Z" fill="url(#paint0_linear_123_13)"/>
<defs>
<linearGradient id="paint0_linear_123_13" x1="269" y1="109" x2="31.1835" y2="168.937" gradientUnits="userSpaceOnUse">
<stop stop-color="#0B826F" stop-opacity="0"/>
<stop offset="0.59" stop-color="#62FFB4"/>
<stop offset="1" stop-color="#0B826F"/>
</linearGradient>
</defs>
</svg>
